<?xml version="1.0" encoding="UTF-8"?><svg id="Layer_2" xmlns="http://www.w3.org/2000/svg" viewBox="0 0 3417.27 1284.36"><defs><style>.cls-1{fill:#fff;}.cls-2{fill:#ffe41f;}.cls-3{fill:#31c5ff;}</style></defs><g id="Layer_1-2"><g><polygon class="cls-1" points="1487.31 528.41 0 1284.36 3417.27 1237 1737.84 509.5 1487.31 528.41"/><g><path class="cls-2" d="M1596.38,514.76c-6.44,.23-12.97,.5-19.1,2.49s-11.91,5.92-14.69,11.73c-2.74,5.74-2.24,12.49-.92,18.72,1.12,5.29,2.93,10.69,6.81,14.47,4.29,4.19,10.51,5.77,16.49,6.24,23.66,1.88,47.76-12.51,57.33-34.23,3.24-7.36,4.48-17.03-1.36-22.56-2.57-2.44-6.09-3.6-9.53-4.46-5.82-1.45-11.8-2.26-17.79-2.41-5.21-.13-10.57,.28-15.32,2.43s-8.82,6.33-9.73,11.46"/><path class="cls-3" d="M1487.31,528.41l64.29-53.63c3.03-2.53,6.14-5.16,7.87-8.7,2.08-4.25,1.88-9.22,1.63-13.95-.81-15.62-1.61-31.24-2.42-46.85-.15-2.85-.18-6.04,1.75-8.15,1.6-1.75,4.11-2.25,6.44-2.66l54.79-9.59c2.86,25.17,6.84,50.22,11.91,75.04,42.44,16.32,83.39,36.5,122.2,60.2-94.17,10.31-188.62,18.06-283.21,23.23,1.49-2.43,12.15-11.99,14.75-14.94Z"/><path class="cls-3" d="M1594.02,397.27c-6.17-50.99-4.43-102.51-2.15-153.7,2.3-51.66,5.65-103.27,8.75-154.88,1.75-29.08,3.5-58.17,5.25-87.25,.12-1.93-2.88-1.92-3,0-3.1,51.6-6.23,103.19-9.3,154.79-3.06,51.48-6.31,103.06-6.73,154.64-.24,28.85,.72,57.74,4.19,86.4,.23,1.89,3.23,1.92,3,0h0Z"/></g></g></g></svg>