<?xml version="1.0" encoding="UTF-8"?><svg id="Layer_2" xmlns="http://www.w3.org/2000/svg" xmlns:xlink="http://www.w3.org/1999/xlink" viewBox="0 0 578.96 221.48"><defs><style>.cls-1{fill:url(#linear-gradient);}</style><linearGradient id="linear-gradient" x1="0" y1="110.74" x2="578.96" y2="110.74" gradientTransform="matrix(1, 0, 0, 1, 0, 0)" gradientUnits="userSpaceOnUse"><stop offset=".11" stop-color="#aac5ff"/><stop offset=".45" stop-color="#aac4fd"/><stop offset=".57" stop-color="#acc3f6"/><stop offset=".66" stop-color="#b1c0ea"/><stop offset=".73" stop-color="#b6bcd9"/><stop offset=".79" stop-color="#beb7c3"/><stop offset=".85" stop-color="#c7b1a8"/><stop offset=".89" stop-color="#d2aa87"/><stop offset=".94" stop-color="#dfa262"/><stop offset=".98" stop-color="#ed9939"/><stop offset="1" stop-color="#f7931e"/></linearGradient></defs><g id="Layer_1-2"><path class="cls-1" d="M578.94,98.11c-.36-18.14-2.82-35.13-14.59-53.01-3.04-4.61-11.03-17.92-19.72-24.05-5.47-3.86-17.43-11.73-23.66-14.2-24.89-9.85-48.39-7.93-74.37-1.47-25.98,6.46-49.67,25.88-56.16,51.85-1.71,6.85-2.26,14.07-5.2,20.49-2.93,6.42-9.21,12.1-16.24,11.39-8.21-.82-13-9.26-18.26-15.62-9.71-11.74-24.57-18.32-39.61-20.76-15.04-2.44-30.41-1.13-45.55,.53-9.7,1.07-21.96,.96-26.19-7.83-2.35-4.89-1.1-10.78-2.65-15.99-3.59-12-19.08-14.71-31.59-15.24-15.23-.65-30.46-1.3-45.68-1.95-18.41-.78-40.87,.65-49.29,17.03-.75,1.46-1.42,3.08-2.77,4.01-4.03,2.77-8.51-2.53-11.54-6.37-6.79-8.6-18.27-12.4-29.23-12.45-10.96-.04-21.63,3.18-32.11,6.38-8.49,2.59-17.6,5.61-22.75,12.84-3.56,5-4.66,11.29-5.55,17.36C1.42,83.73-.12,116.85,1.65,149.79l-1.65-.7c12.8,6.19,27.97,7.32,41.55,3.09-1.07-4.77-.16-9.95,2.49-14.06,4.28,9.67,14.46,15.7,24.83,17.74s21.09,.73,31.58-.59c15.62-1.97,31.91-4.18,44.88-13.11,6.04-4.16,11.38-9.77,18.44-11.75s16.55,2.22,16.28,9.54c-.16,4.37-3.74,8.37-2.86,12.66,1.53,7.44,12.25,6.18,19.83,5.63,8.51-.61,17.23,2.32,23.63,7.95,1.35,1.19,2.68,2.63,2.9,4.42,.27,2.11-1.07,4.1-2.59,5.59-5.97,5.85-14.88,7.11-22.92,9.43-8.03,2.31-16.71,7.23-17.9,15.51-.98,6.84,3.89,13.46,10.03,16.63s13.29,3.58,20.2,3.68c59.69,.89,123.64-20.34,156.8-69.99,2.51-3.76,5.41-8.04,9.9-8.61,5.92-.75,10.17,5.22,13.82,9.94,19.96,25.85,57.08,29.51,89.74,29.15,18.06-.2,37.03-1.24,52.43-10.68,8.78-5.38,17.32-10.84,24.2-18.5,9.5-10.58,14.59-13.01,18.14-28.95,2.22-9.96,3.75-15.49,3.55-25.7Zm-288.38,17.63c-.07,3.59-1.32,5.31-4.62,7.19h0c-3.62,3.1-13.02-2.72-12.17-7.4s5.95-7.51,10.71-7.83c1.23-.08,2.57-.01,3.53,.76,0,0,2.64,2.5,2.55,7.28Zm189.94-10.1c-5.35,1.48-11.21-4.28-9.82-9.65,1.39-5.37,9.31-7.57,13.27-3.68,3.96,3.89,1.9,11.85-3.45,13.33Z"/></g></svg>